<svg xmlns="http://www.w3.org/2000/svg" xmlns:xlink="http://www.w3.org/1999/xlink" width="18" height="18" viewBox="0 0 18 18">
    <defs>
        <filter id="gx7ania5wa">
            <feColorMatrix in="SourceGraphic" values="0 0 0 0 0.227451 0 0 0 0 0.270588 0 0 0 0 0.341176 0 0 0 1.000000 0"/>
        </filter>
        <path id="0w1dimccxb" d="M12.15 3.375c.746 0 1.35.604 1.35 1.35v8.1c0 .746-.604 1.35-1.35 1.35h-6.3c-.746 0-1.35-.604-1.35-1.35v-8.1c0-.746.604-1.35 1.35-1.35zm0 .9h-6.3c-.249 0-.45.201-.45.45v8.1c0 .249.201.45.45.45l2.648.002c-.037-.154-.06-.375-.06-.62 0-.467.083-.845.187-.845h.75c.104 0 .188.378.188.844-.028.273-.056.48-.087.62l2.674-.001c.249 0 .45-.201.45-.45v-8.1c0-.249-.201-.45-.45-.45zM7.762 9.9c.063 0 .113.201.113.45s-.05.45-.112.45h-.9c-.055 0-.1-.154-.11-.36l-.003-.09c0-.249.05-.45.112-.45h.9zm1.688 0c.062 0 .113.201.113.45s-.05.45-.113.45h-.9c-.054 0-.1-.154-.11-.36l-.002-.09c0-.249.05-.45.112-.45h.9zm1.688 0c.062 0 .112.201.112.45s-.05.45-.113.45h-.9c-.054 0-.1-.154-.11-.36l-.002-.09c0-.249.05-.45.113-.45h.9zM7.762 8.1c.062 0 .112.201.112.45s-.05.45-.112.45h-.9c-.055 0-.1-.154-.11-.36l-.003-.09c0-.249.05-.45.112-.45h.9zm1.687 0c.062 0 .113.201.113.45S9.512 9 9.45 9h-.9c-.054 0-.1-.154-.11-.36l-.002-.09c0-.249.05-.45.112-.45h.9zm1.688 0c.062 0 .112.201.112.45s-.05.45-.113.45h-.9c-.054 0-.1-.154-.11-.36l-.002-.09c0-.249.05-.45.113-.45h.9zM7.762 6.3c.062 0 .112.201.112.45s-.05.45-.112.45h-.9c-.055 0-.1-.154-.11-.36l-.003-.09c0-.249.05-.45.112-.45h.9zm1.687 0c.062 0 .113.201.113.45s-.05.45-.113.45h-.9c-.054 0-.1-.154-.11-.36l-.002-.09c0-.249.05-.45.112-.45h.9zm1.688 0c.062 0 .112.201.112.45s-.05.45-.113.45h-.9c-.054 0-.1-.154-.11-.36l-.002-.09c0-.249.05-.45.113-.45h.9z"/>
    </defs>
    <g fill="none" fill-rule="evenodd">
        <g>
            <g>
                <g>
                    <g filter="url(#gx7ania5wa)" transform="translate(-229 -116) translate(71 101) translate(17 9) translate(131)">
                        <g transform="translate(10 6)">
                            <mask id="4bgxqbl72c" fill="#fff">
                                <use xlink:href="#0w1dimccxb"/>
                            </mask>
                            <use fill="#000" fill-rule="nonzero" xlink:href="#0w1dimccxb"/>
                            <g fill="#000" mask="url(#4bgxqbl72c)">
                                <path d="M0 0H18V18H0z" transform="translate(.563)"/>
                            </g>
                        </g>
                    </g>
                </g>
            </g>
        </g>
    </g>
</svg>
