<?xml version="1.0" encoding="utf-8"?>
<!-- Generator: Adobe Illustrator 23.0.6, SVG Export Plug-In . SVG Version: 6.00 Build 0)  -->
<svg version="1.1" id="Capa_1" xmlns="http://www.w3.org/2000/svg" xmlns:xlink="http://www.w3.org/1999/xlink" x="0px" y="0px"
	 viewBox="0 0 32 32" style="enable-background:new 0 0 32 32;" xml:space="preserve">
<style type="text/css">
	.st0{stroke:#000000;stroke-width:1.5;stroke-linecap:round;stroke-miterlimit:10;}
</style>
<path d="M22.5,2.8c-2.7,0-5,1.8-5.8,4.2c0,0,0,0,0,0H6.9C6.6,7,6.2,7.2,6.1,7.5C5.9,7.8,6,8.2,6.2,8.5l7.1,8.3v5.6
	c0,0.3,0.2,0.7,0.5,0.8l3.6,1.8c0.1,0.1,0.3,0.1,0.4,0.1c0.2,0,0.3,0,0.5-0.1c0.3-0.2,0.4-0.5,0.4-0.8v-7.4l1.9-2.3c0,0,0,0,0,0
	c0.6,0.2,1.2,0.3,1.9,0.3c3.3,0,6-2.7,6-6S25.9,2.8,22.5,2.8z M17.1,15.9c-0.1,0.2-0.2,0.4-0.2,0.6v6.3l-1.8-0.9h0v-5.4
	c0-0.2-0.1-0.4-0.2-0.6l-6-7.1h7.6c0,0,0,0,0,0c0,2,1,3.8,2.5,4.9h0L17.1,15.9z M16.6,7.8c0,0.1,0,0.1,0,0.2
	C16.6,7.9,16.6,7.9,16.6,7.8z M19.8,14.2C19.8,14.2,19.8,14.2,19.8,14.2C19.8,14.2,19.8,14.2,19.8,14.2z M22.5,13.1
	c-2.4,0-4.3-1.9-4.3-4.3s1.9-4.3,4.3-4.3s4.3,1.9,4.3,4.3S24.9,13.1,22.5,13.1z"/>
<line class="st0" x1="21.1" y1="7.5" x2="24" y2="10.4"/>
<line class="st0" x1="24" y1="7.5" x2="21.1" y2="10.4"/>
</svg>
