<svg xmlns="http://www.w3.org/2000/svg" xmlns:xlink="http://www.w3.org/1999/xlink" width="32" height="32" viewBox="0 0 32 32">
    <defs>
        <path id="fqdbtencya" d="M16 5c6.075 0 11 4.925 11 11s-4.925 11-11 11S5 22.075 5 16 9.925 5 16 5zm0 2c-4.97 0-9 4.03-9 9s4.03 9 9 9 9-4.03 9-9-4.03-9-9-9zm0 4c.552 0 1 .448 1 1v3h3c.552 0 1 .448 1 1s-.448 1-1 1h-3v3c0 .552-.448 1-1 1s-1-.448-1-1v-3h-3c-.552 0-1-.448-1-1s.448-1 1-1h3v-3c0-.552.448-1 1-1z"/>
    </defs>
    <g fill="none" fill-rule="evenodd">
        <g>
            <g transform="translate(-1236 -110) translate(1236 110)">
                <mask id="b6jvqfu3hb" fill="#fff">
                    <use xlink:href="#fqdbtencya"/>
                </mask>
                <use fill="#000" fill-rule="nonzero" xlink:href="#fqdbtencya"/>
                <g fill="#FF004C" mask="url(#b6jvqfu3hb)">
                    <path d="M0 0H32V32H0z"/>
                </g>
            </g>
        </g>
    </g>
</svg>
