<svg xmlns="http://www.w3.org/2000/svg" xmlns:xlink="http://www.w3.org/1999/xlink" width="32" height="32" viewBox="0 0 32 32">
    <defs>
        <filter id="enfxjc017a">
            <feColorMatrix in="SourceGraphic" values="0 0 0 0 1.000000 0 0 0 0 1.000000 0 0 0 0 1.000000 0 0 0 1.000000 0"/>
        </filter>
        <path id="fcwmnwgvmb" d="M20 6c.265 0 .52.105.707.293l5 5c.188.187.293.442.293.707v11c0 1.657-1.343 3-3 3H9c-1.657 0-3-1.343-3-3V9c0-1.657 1.343-3 3-3zm-.415 2H12v3h7c.513 0 .936.386.993.883L20 12c0 .513-.386.936-.883.993L19 13h-8c-.513 0-.936-.386-.993-.883L10 12V8H9c-.513 0-.936.386-.993.883L8 9v14c0 .552.448 1 1 1h1v-7c0-.513.386-.936.883-.993L11 16h10c.513 0 .936.386.993.883L22 17v7h1c.513 0 .936-.386.993-.883L24 23V12.415L19.585 8zM20 18h-8v6h8v-6z"/>
    </defs>
    <g fill="none" fill-rule="evenodd">
        <g filter="url(#enfxjc017a)" transform="translate(-1439 -171)">
            <g transform="translate(1439 171)">
                <mask id="zu1fa8auxc" fill="#fff">
                    <use xlink:href="#fcwmnwgvmb"/>
                </mask>
                <use fill="#000" xlink:href="#fcwmnwgvmb"/>
                <g fill="#9B9B9B" mask="url(#zu1fa8auxc)">
                    <path d="M0 0H32V32H0z"/>
                </g>
            </g>
        </g>
    </g>
</svg>
