<svg xmlns="http://www.w3.org/2000/svg" xmlns:xlink="http://www.w3.org/1999/xlink" width="16" height="16" viewBox="0 0 16 16">
    <defs>
        <path id="2fhkxbxs8a" d="M7.996.5C3.852.5.5 3.856.5 8s3.352 7.5 7.496 7.5S15.5 12.144 15.5 8 12.14.5 7.996.5zM8 14c-3.315 0-6-2.685-6-6s2.685-6 6-6 6 2.685 6 6-2.685 6-6 6zm.065-4.5c.335 0 .578-.29.624-.616l.035-.227C9.984 8.381 11 7.727 11 6.13v-.025C11 4.43 9.868 3.5 8.204 3.5c-1.017 0-1.791.352-2.404.906-.208.188-.3.44-.3.679 0 .478.37.88.809.88.196 0 .381-.088.52-.2.416-.34.843-.504 1.34-.504.67 0 1.063.327 1.063.893v.025c0 .617-.462.956-1.467 1.095-.37.05-.59.34-.532.754l.116.856c.046.34.289.616.624.616h.092zM8 12c.575 0 1-.43 1-.988v-.024C9 10.43 8.575 10 8 10s-1 .43-1 .988v.024c0 .558.425.988 1 .988z"/>
    </defs>
    <g fill="none" fill-rule="evenodd">
        <g>
            <g transform="translate(-674 -163) translate(674 163)">
                <mask id="ey51kxmj5b" fill="#fff">
                    <use xlink:href="#2fhkxbxs8a"/>
                </mask>
                <use fill="#000" fill-rule="nonzero" xlink:href="#2fhkxbxs8a"/>
                <g fill="#9B9B9B" mask="url(#ey51kxmj5b)">
                    <path d="M0 0H16V16H0z"/>
                </g>
            </g>
        </g>
    </g>
</svg>
