<svg xmlns="http://www.w3.org/2000/svg" xmlns:xlink="http://www.w3.org/1999/xlink" width="32" height="32" viewBox="0 0 32 32">
    <defs>
        <filter id="wsbxv91hta" width="118%" height="161.4%" x="-9%" y="-30.7%" filterUnits="objectBoundingBox">
            <feOffset dy="11" in="SourceAlpha" result="shadowOffsetOuter1"/>
            <feGaussianBlur in="shadowOffsetOuter1" result="shadowBlurOuter1" stdDeviation="5"/>
            <feColorMatrix in="shadowBlurOuter1" result="shadowMatrixOuter1" values="0 0 0 0 0 0 0 0 0 0 0 0 0 0 0 0 0 0 0.115056818 0"/>
            <feMerge>
                <feMergeNode in="shadowMatrixOuter1"/>
                <feMergeNode in="SourceGraphic"/>
            </feMerge>
        </filter>
        <filter id="cefzhyzmxb">
            <feColorMatrix in="SourceGraphic" values="0 0 0 0 1.000000 0 0 0 0 0.000000 0 0 0 0 0.296907 0 0 0 1.000000 0"/>
        </filter>
        <path id="z69z7mrv0c" d="M16 8c2.21 0 4 1.79 4 4v2c0 1.129-.468 2.149-1.22 2.876 3.048.476 5.22 1.71 5.22 3.145v1.312c0 1.105-.895 2-2 2H10c-1.105 0-2-.895-2-2v-1.317c0-1.435 2.172-2.666 5.22-3.14C12.468 16.148 12 15.128 12 14v-2c0-2.21 1.79-4 4-4zm0 10c-1.933 0-3.807.32-5.141.88-1.142.479-1.526.98-1.526 1.136v1.317c0 .368.3.667.667.667h12c.368 0 .667-.299.667-.667v-1.312c0-.156-.385-.659-1.527-1.139C19.806 18.322 17.932 18 16 18zm0-8.667c-1.473 0-2.667 1.194-2.667 2.667v2c0 1.473 1.194 2.667 2.667 2.667 1.473 0 2.667-1.194 2.667-2.667v-2c0-1.473-1.194-2.667-2.667-2.667z"/>
    </defs>
    <g fill="none" fill-rule="evenodd">
        <g>
            <g filter="url(#wsbxv91hta)" transform="translate(-79 -250) translate(71 148)">
                <g filter="url(#cefzhyzmxb)" transform="translate(8 96)">
                    <g transform="translate(0 6)">
                        <mask id="q1vlwlr39d" fill="#fff">
                            <use xlink:href="#z69z7mrv0c"/>
                        </mask>
                        <use fill="#FFF" fill-rule="nonzero" xlink:href="#z69z7mrv0c"/>
                        <g fill="#FF004C" mask="url(#q1vlwlr39d)">
                            <path d="M0 0H32V32H0z"/>
                        </g>
                    </g>
                </g>
            </g>
        </g>
    </g>
</svg>
