<svg xmlns="http://www.w3.org/2000/svg" xmlns:xlink="http://www.w3.org/1999/xlink" width="32" height="33" viewBox="0 0 32 33">
    <defs>
        <path id="ojhyu6yh1a" d="M15.995 6C21.52 6 26 10.475 26 16s-4.48 10-10.005 10S6 21.525 6 16s4.47-10 9.995-10zM16 8c-4.42 0-8 3.58-8 8s3.58 8 8 8 8-3.58 8-8-3.58-8-8-8zm-.02 5.619c.19 0 .355.133.4.322.172.71 1.028 4.281 1.028 4.879 0 .808-.64 1.466-1.428 1.466-.788 0-1.429-.658-1.429-1.466 0-.598.857-4.17 1.028-4.88.046-.188.211-.321.4-.321zm3.81-2.857c.788 0 1.428.64 1.428 1.428 0 .79-.64 1.429-1.429 1.429s-1.428-.64-1.428-1.429c0-.788.64-1.428 1.428-1.428zm-7.62 0c.79 0 1.429.64 1.429 1.428 0 .79-.64 1.429-1.429 1.429s-1.428-.64-1.428-1.429c0-.788.64-1.428 1.428-1.428zm3.81-.952c.789 0 1.428.64 1.428 1.428 0 .79-.64 1.429-1.428 1.429-.79 0-1.429-.64-1.429-1.429s.64-1.428 1.429-1.428z"/>
    </defs>
    <g fill="none" fill-rule="evenodd" opacity=".8">
        <g>
            <g>
                <g transform="translate(-904 -18) translate(885) translate(19 18.08)">
                    <mask id="6sjfu4vv9b" fill="#fff">
                        <use xlink:href="#ojhyu6yh1a"/>
                    </mask>
                    <use fill="#000" fill-rule="nonzero" xlink:href="#ojhyu6yh1a"/>
                    <g fill="#121f2a" mask="url(#6sjfu4vv9b)">
                        <path d="M0 0H32V32H0z"/>
                    </g>
                </g>
            </g>
        </g>
    </g>
</svg>
