<svg xmlns="http://www.w3.org/2000/svg" width="16" height="16" viewBox="0 0 16 16">
    <defs>
        <filter id="zaz7bhj5za">
            <feColorMatrix in="SourceGraphic" values="0 0 0 0 0.227451 0 0 0 0 0.270588 0 0 0 0 0.341176 0 0 0 1.000000 0"/>
        </filter>
    </defs>
    <g fill="none" fill-rule="evenodd">
        <g>
            <g>
                <g>
                    <g>
                        <g>
                            <g fill="#FFF" stroke="#CFCFCF" transform="translate(-1029 -221) translate(1014 108) translate(0 48) translate(15 64) translate(0 1)">
                                <rect width="17" height="17" x="-.5" y="-.5" rx="2"/>
                            </g>
                            <g transform="translate(-1029 -221) translate(1014 108) translate(0 48) translate(15 64) translate(0 1)">
                                <rect width="17" height="17" x="-.5" y="-.5" fill="#FFF" stroke="#CFCFCF" rx="2"/>
                                <g filter="url(#zaz7bhj5za)">
                                    <path fill="#9ECF92" fill-rule="nonzero" d="M12.826 3.609c-.145-.145-.385-.145-.53 0l-5.59 5.57c-.146.15-.386.15-.53 0L3.726 6.68c-.076-.075-.17-.11-.266-.11-.095 0-.195.035-.265.11l-1.085.976c-.07.07-.11.165-.11.26 0 .1.04.2.11.276l2.47 2.592.535.535 1.06 1.071c.145.145.386.145.53 0l7.186-7.176c.145-.145.145-.385 0-.535l-1.065-1.071z"/>
                                </g>
                            </g>
                        </g>
                    </g>
                </g>
            </g>
        </g>
    </g>
</svg>
