<svg width="32" height="32" viewBox="0 0 32 32" xmlns="http://www.w3.org/2000/svg" xmlns:xlink="http://www.w3.org/1999/xlink">
    <defs>
        <path d="M16 5c6.075 0 11 4.925 11 11s-4.925 11-11 11S5 22.075 5 16 9.925 5 16 5zm0 2a9 9 0 1 0 0 18 9 9 0 0 0 0-18zm0 4a1 1 0 0 1 1 1v3h3a1 1 0 0 1 0 2h-3v3a1 1 0 0 1-2 0v-3h-3a1 1 0 0 1 0-2h3v-3a1 1 0 0 1 1-1z" id="a"/>
    </defs>
    <g fill="none">
        <mask id="b" fill="#fff">
            <use xlink:href="#a"/>
        </mask>
        <use fill="#FF004C" xlink:href="#a"/>
        <g mask="url(#b)" fill="#FF004C">
            <path d="M0 0h32v32H0z"/>
        </g>
    </g>
</svg>
