<svg width="32" height="32" viewBox="0 0 32 32" xmlns="http://www.w3.org/2000/svg" xmlns:xlink="http://www.w3.org/1999/xlink">
    <defs>
        <path d="M12.647 0c.492 0 .954.192 1.302.54l1.747 1.746a.664.664 0 0 0 .473.196h1.99A1.84 1.84 0 0 1 20 4.323v10.04c0 1.015-.826 1.84-1.84 1.84H1.84A1.84 1.84 0 0 1 0 14.364l.003-10.04c0-1.015.827-1.84 1.841-1.84h1.99c.18 0 .348-.07.474-.197L6.055.54C6.403.192 6.865 0 7.357 0zm0 1.172h-5.29a.665.665 0 0 0-.473.196L5.137 3.115c-.348.348-.81.54-1.302.54h-1.99a.67.67 0 0 0-.67.668l-.003 10.04c0 .37.3.669.669.669h16.318a.67.67 0 0 0 .67-.67V4.324c0-.37-.3-.669-.67-.669h-1.99c-.492 0-.954-.191-1.302-.54L13.12 1.369a.664.664 0 0 0-.473-.196zm-2.645 3.193a4.356 4.356 0 0 1 4.35 4.35 4.356 4.356 0 0 1-4.35 4.351 4.356 4.356 0 0 1-4.35-4.35 4.356 4.356 0 0 1 4.35-4.351zm0 1.172a3.183 3.183 0 0 0-3.179 3.179 3.183 3.183 0 0 0 3.179 3.178 3.183 3.183 0 0 0 3.179-3.178 3.183 3.183 0 0 0-3.179-3.18z" id="a"/>
    </defs>
    <g transform="translate(6 8)" fill="none" fill-rule="evenodd">
        <mask id="b" fill="#fff">
            <use xlink:href="#a"/>
        </mask>
        <use fill="#597d99" fill-rule="nonzero" xlink:href="#a"/>
        <g mask="url(#b)">
            <path fill="#597d99" d="M-6-8h32v32H-6z"/>
        </g>
    </g>
</svg>
