<svg xmlns="http://www.w3.org/2000/svg" width="21" height="21" viewBox="0 0 21 21">
    <g fill-rule="evenodd">        <g  transform="translate(-1516.000000, -237.000000)">
            <g>
                <path fill="#f50a5a" fill-rule="nonzero" d="M11.114 17.187c-.843 0-1.669-.142-2.455-.422-.759-.27-1.465-.664-2.099-1.17-1.267-1.012-2.173-2.432-2.55-3.998-.165-.687-.856-1.11-1.543-.944-.687.165-1.11.856-.944 1.543.257 1.068.69 2.08 1.285 3.008.584.91 1.31 1.715 2.157 2.39.855.683 1.809 1.215 2.835 1.58 1.062.38 2.177.571 3.314.571 1.331 0 2.624-.26 3.84-.775 1.175-.497 2.23-1.208 3.136-2.114.905-.906 1.616-1.96 2.113-3.135.515-1.217.776-2.51.776-3.84 0-1.332-.26-2.624-.776-3.84-.497-1.176-1.208-2.23-2.113-3.136-.906-.906-1.96-1.617-3.136-2.114-1.217-.514-2.509-.775-3.84-.775-1.946 0-3.83.566-5.446 1.638-1.287.854-2.348 1.987-3.11 3.313V2.913c0-.706-.573-1.28-1.279-1.28S0 2.208 0 2.914v4.845c0 .706.573 1.28 1.279 1.28h4.78c.706 0 1.28-.574 1.28-1.28 0-.706-.574-1.279-1.28-1.279H4.645c.572-1.085 1.406-2.01 2.437-2.693 1.196-.793 2.59-1.212 4.032-1.212 1.952 0 3.787.76 5.167 2.14 1.38 1.38 2.14 3.215 2.14 5.166 0 1.952-.76 3.787-2.14 5.167-1.38 1.38-3.215 2.14-5.167 2.14z" transform="translate(1516.000000, 237.000000)"/>
            </g>
        </g>
    </g>
</svg>
