<svg xmlns="http://www.w3.org/2000/svg" width="16" height="16" viewBox="0 0 16 16">
    <g fill="none" fill-rule="evenodd">
        <g fill="#9DA6B2">
            <g>
                <g>
                    <g>
                        <path d="M9.478 8l3.716-3.717c.408-.408.408-1.07 0-1.477-.408-.408-1.07-.408-1.478 0L8 6.522 4.284 2.806c-.408-.408-1.07-.408-1.478 0-.408.408-.408 1.07 0 1.477L6.522 8l-3.716 3.716c-.408.408-.408 1.07 0 1.477.408.408 1.07.408 1.478 0L8 9.477l3.716 3.716c.408.408 1.07.408 1.478 0 .408-.408.408-1.07 0-1.477L9.478 8z" transform="translate(-738 -568) translate(584 163) translate(41 398) translate(113 7)"/>
                    </g>
                </g>
            </g>
        </g>
    </g>
</svg>
