<svg width="32" height="32" viewBox="0 0 32 32" xmlns="http://www.w3.org/2000/svg">
    <g fill="#597d99" fill-rule="nonzero">
        <path d="M15.34 20.97a.935.935 0 0 0 1.32 0l3.517-3.503a.926.926 0 0 0 0-1.314.936.936 0 0 0-1.319 0l-1.925 1.918V7.929A.93.93 0 0 0 16 7a.93.93 0 0 0-.933.929V18.07l-1.925-1.918a.936.936 0 0 0-1.32 0 .926.926 0 0 0 0 1.314l3.518 3.503z"/>
        <path d="M24.069 15.11a.93.93 0 0 0-.931.927v7.109H8.862v-7.109a.93.93 0 0 0-.931-.927.93.93 0 0 0-.931.927v7.418C7 24.308 7.695 25 8.552 25h14.896c.857 0 1.552-.692 1.552-1.545v-7.418a.93.93 0 0 0-.931-.927z"/>
    </g>
</svg>
