<svg xmlns="http://www.w3.org/2000/svg" width="32" height="32" viewBox="0 0 32 32">
    <defs>
        <filter id="wtl7jhqbla">
            <feColorMatrix in="SourceGraphic" values="0 0 0 0 0.352941 0 0 0 0 0.392157 0 0 0 0 0.435294 0 0 0 1.000000 0"/>
        </filter>
    </defs>
    <g fill="none" fill-rule="evenodd">
        <g>
            <g filter="url(#wtl7jhqbla)" transform="translate(-1486.000000, -319.000000) translate(70.000000, 306.000000)">
                <g>
                    <path fill="#000" fill-rule="nonzero" d="M13.582 7.818c.502 0 .909.407.909.91 0 .501-.407.908-.91.908H8.728c-.502 0-.909.407-.909.91v12.727c0 .502.407.909.91.909h12.727c.502 0 .909-.407.909-.91v-4.854c0-.502.407-.909.909-.909s.909.407.909.91v4.854c0 1.506-1.221 2.727-2.727 2.727H8.727C7.221 26 6 24.779 6 23.273V10.545C6 9.04 7.221 7.818 8.727 7.818h4.855zm8.515-1.552l3.637 3.637c.355.355.355.93 0 1.285l-9.091 9.091c-.17.17-.402.266-.643.266h-3.636c-.502 0-.91-.407-.91-.909V16c0-.241.096-.472.267-.643l9.09-9.09c.356-.356.931-.356 1.286 0zm-.642 1.929l-8.182 8.182v2.35h2.35l8.182-8.182-2.35-2.35z" transform="translate(1416.000000, 13.000000)"/>
                </g>
            </g>
        </g>
    </g>
</svg>
