<?xml version="1.0" encoding="UTF-8"?>
<svg width="32px" height="32px" viewBox="0 0 32 32" version="1.1" xmlns="http://www.w3.org/2000/svg" xmlns:xlink="http://www.w3.org/1999/xlink">
    <title>ATOMS/ICONS/export</title>
    <defs>
        <path d="M16.0714286,17.3374228 L16.0714286,5.62087594 C16.0714286,5.43313276 15.9947748,5.2564585 15.8633462,5.13497303 L10.5733462,0.176674252 C10.4528571,0.0662577165 10.2885714,0 10.1242857,0 L1.94285714,0 C1.58142857,0 1.28571429,0.298159724 1.28571429,0.662577165 L1.28571429,8.06134252 C1.28571429,8.42575996 1.58142857,8.72391969 1.94285714,8.72391969 C2.30428571,8.72391969 2.6,8.42575996 2.6,8.06134252 L2.6,1.32515433 L9.2809395,1.32515433 L9.2809395,6.40489961 C9.2809395,6.76931705 9.57665378,7.06747677 9.93808235,7.06747677 L14.6475933,7.06747677 C14.6804504,7.06747677 14.7242471,7.06747677 14.7571042,7.05644681 L14.7571042,16.6748457 L2.6,16.6748457 L2.6,14.024537 C2.6,13.6601196 2.30428571,13.3619598 1.94285714,13.3619598 C1.58142857,13.3619598 1.28571429,13.6601196 1.28571429,14.024537 L1.28571429,17.3374228 C1.28571429,17.7018403 1.58142857,18 1.94285714,18 L15.4142857,18 C15.7757143,18 16.0714286,17.7018403 16.0714286,17.3374228 Z M5.19480114,7.30213893 C5.4294602,7.01691383 5.83481461,6.99412481 6.10147435,7.24508586 L6.10147435,7.24508586 L9.42950677,10.4164636 C9.56820145,10.5533588 9.64285714,10.7358722 9.64285714,10.9298205 C9.64285714,11.1237687 9.56816381,11.3176767 9.42950677,11.4431773 L9.42950677,11.4431773 L6.1014367,14.6145953 C5.973434,14.7286612 5.82412262,14.7857143 5.6747736,14.7857143 C5.4934239,14.7857143 5.32276619,14.7058319 5.19476349,14.5575423 C4.96010443,14.2723574 4.98145076,13.8388427 5.2481105,13.5878816 L5.2481105,13.5878816 L7.30680796,11.625731 L0.640013475,11.625731 C0.288006064,11.625731 0,11.3177169 0,10.9412552 C0,10.5647935 0.288006064,10.2567794 0.640013475,10.2567794 L0.640013475,10.2567794 L7.33884628,10.2567794 L5.24814814,8.27179957 C4.98145076,8.02083853 4.96014208,7.58732376 5.19480114,7.30213893 Z M10.5952252,2.00983039 L14.5709395,5.74236142 L10.5952252,5.74236142 L10.5952252,2.00983039 Z" id="path-1"></path>
    </defs>
    <g id="ATOMS/ICONS/export" stroke="none" stroke-width="1" fill="none" fill-rule="evenodd">
        <g id="Group" transform="translate(8.000000, 7.000000)">
            <mask id="mask-2" fill="white">
                <use xlink:href="#path-1"></use>
            </mask>
            <use id="export_icon" fill="#000000" fill-rule="nonzero" xlink:href="#path-1"></use>
            <g id="ATOMS/COLORS/corporativo_4-Copy" mask="url(#mask-2)" fill="#5A646F">
                <g transform="translate(-8.000000, -7.000000)" id="Rectangle-12">
                    <rect x="0" y="0" width="76" height="76"></rect>
                </g>
            </g>
        </g>
    </g>
</svg>