<?xml version="1.0" encoding="UTF-8"?>
<svg width="18px" height="18px" viewBox="0 0 18 18" version="1.1" xmlns="http://www.w3.org/2000/svg" xmlns:xlink="http://www.w3.org/1999/xlink">
    <title>ICONS/ICON Copy 17</title>
    <g id="Symbols" stroke="none" stroke-width="1" fill="none" fill-rule="evenodd">
        <g id="COMPONENT/publication/tags-read" transform="translate(-1078.000000, -27.000000)" fill="##597d99">
            <g id="ATOMS/ICONS/view-detail" transform="translate(1071.000000, 20.000000)">
                <g id="share-(8)" fill="none" transform="translate(7.000000, 7.000000)">
                    <path fill="#597d99" d="M6.10772834,0.0140515222 L3.61124122,0.0140515222 C1.62469321,0.0140515222 0.0140515222,1.62469321 0.0140515222,3.61124122 L0.0140515222,14.4028103 C0.0140515222,16.3893583 1.62469321,18 3.61124122,18 L14.4028103,18 C16.3893583,18 18,16.3893583 18,14.4028103 C18,12.3605059 18,11.9063232 18,11.9063232 C18,11.409911 17.5971148,11.0070258 17.1007026,11.0070258 C16.6042904,11.0070258 16.2014052,11.409911 16.2014052,11.9063232 L16.2014052,14.4028103 C16.2014052,15.3956347 15.3956347,16.2014052 14.4028103,16.2014052 C11.4081499,16.2014052 6.60500234,16.2014052 3.61124122,16.2014052 C2.61751756,16.2014052 1.81264637,15.3956347 1.81264637,14.4028103 C1.81264637,11.4081499 1.81264637,6.60500234 1.81264637,3.61124122 C1.81264637,2.61751756 2.61751756,1.81264637 3.61124122,1.81264637 L6.10772834,1.81264637 C6.60414052,1.81264637 7.00702576,1.40976112 7.00702576,0.913348946 C7.00702576,0.416936768 6.60414052,0.0140515222 6.10772834,0.0140515222 Z M14.9297986,1.81264637 L11.704918,1.81264637 C11.2085059,1.81264637 10.8056206,1.40976112 10.8056206,0.913348946 C10.8056206,0.416936768 11.2085059,0.0140515222 11.704918,0.0140515222 L17.1007026,0.0140515222 C17.5971148,0.0140515222 18,0.416936768 18,0.913348946 L18,6.30913349 C18,6.80554567 17.5971148,7.20843091 17.1007026,7.20843091 C16.6042904,7.20843091 16.2014052,6.80554567 16.2014052,6.30913349 L16.2014052,3.08425293 L9.64282904,9.64282904 C9.29210304,9.99355504 8.72194848,9.99355504 8.37122248,9.64282904 C8.01959719,9.29210304 8.01959719,8.72194848 8.37122248,8.37122248 L14.9297986,1.81264637 Z" id="Shape"></path>
                </g>
            </g>
        </g>
    </g>
</svg>