<svg xmlns="http://www.w3.org/2000/svg" xmlns:xlink="http://www.w3.org/1999/xlink" width="24" height="24" viewBox="0 0 24 24">
    <defs>
        <path id="o6xf2hz9ba" d="M10.912 9.28c.185.188.41.283.674.283h5.095c.265 0 .49.094.674.282.185.189.277.418.277.688v5.203c0 .27-.092.499-.277.687-.185.189-.41.283-.674.283H6.72c-.264 0-.489-.094-.674-.283-.185-.188-.277-.417-.277-.687V8.264c0-.27.092-.499.277-.687.185-.189.41-.283.674-.283h1.99c.264 0 .488.094.673.283m1.065-.91C10.011 6.222 9.49 6 8.882 6H6.72c-.608 0-1.13.222-1.565.667-.436.445-.654.977-.654 1.597v7.472c0 .62.218 1.152.654 1.597.435.445.957.667 1.565.667h9.962c.608 0 1.13-.222 1.565-.667.436-.445.654-.977.654-1.597v-5.203c0-.62-.218-1.152-.654-1.597-.435-.445-.957-.667-1.565-.667h-4.779"/>
    </defs>
    <g fill="none" fill-rule="evenodd">
        <g>
            <g>
                <g>
                    <g transform="translate(-1067 -509) translate(70 485) translate(991 24) translate(6)">
                        <mask id="zkyhbblp1b" fill="#fff">
                            <use xlink:href="#o6xf2hz9ba"/>
                        </mask>
                        <use fill="#000" fill-rule="nonzero" xlink:href="#o6xf2hz9ba"/>
                        <g fill="#5A646F" mask="url(#zkyhbblp1b)">
                            <path d="M0 0H24V24H0z"/>
                        </g>
                    </g>
                </g>
            </g>
        </g>
    </g>
</svg>
