<svg xmlns="http://www.w3.org/2000/svg" width="32" height="32" viewBox="0 0 32 32">
    <defs>
        <filter id="mgayco0gma">
            <feColorMatrix in="SourceGraphic" values="0 0 0 0 0.347741 0 0 0 0 0.488439 0 0 0 0 0.600901 0 0 0 1.000000 0"/>
        </filter>
    </defs>
    <g fill="none" fill-rule="evenodd">
        <g>
            <g>
                <g filter="url(#mgayco0gma)" transform="translate(-481.000000, -400.000000) translate(445.000000, 144.000000) translate(36.000000, 250.000000)">
                    <g>
                        <g fill="#000" fill-rule="nonzero" stroke="#000" stroke-width=".2">
                            <path d="M14.083 12.748l1.903-5.94 1.86-1.86c.206-.206.206-.54 0-.746L13.798.154c-.206-.205-.54-.205-.746 0l-1.86 1.86-5.94 1.903c-.154.05-.277.167-.333.318L.034 17.288c-.128.34.121.712.494.712 0 0 0 0 0 0h15.778c.292 0 .528-.236.528-.527 0-.292-.236-.528-.528-.528H3.441l10.324-3.864c.151-.056.268-.18.318-.333zm-.658-11.475l3.302 3.302-1.205 1.205-3.302-3.302 1.205-1.205zM2.619 16.127l4.794-4.794c.885.544 2.05.427 2.806-.33.89-.89.89-2.33 0-3.221-.889-.889-2.334-.889-3.223 0-.767.767-.868 1.934-.33 2.806L1.874 15.38 5.817 4.844l5.512-1.766 3.593 3.593-1.766 5.512L2.62 16.127zm5.123-7.6c.477-.477 1.253-.477 1.73 0 .479.479.479 1.253 0 1.731-.476.477-1.253.477-1.73 0-.478-.478-.478-1.252 0-1.73z" transform="translate(0.000000, 6.000000) translate(8.000000, 6.000000)"/>
                        </g>
                    </g>
                </g>
            </g>
        </g>
    </g>
</svg>
