<svg width="32" height="32" viewBox="0 0 32 32" xmlns="http://www.w3.org/2000/svg" xmlns:xlink="http://www.w3.org/1999/xlink">
    <defs>
        <path d="M16.067 6.014c1.548 0 3.085.36 4.446 1.04 3.36 1.681 5.531 5.194 5.531 8.949 0 3.064-1.446 6.017-3.867 7.899a10.074 10.074 0 0 1-8.737 1.758c-3.601-.969-6.421-3.952-7.184-7.601-.777-3.717.657-7.625 3.656-9.956a10.066 10.066 0 0 1 6.155-2.09zm0 1.538a8.518 8.518 0 0 0-5.21 1.766 8.527 8.527 0 0 0-3.095 8.426c.646 3.086 3.031 5.61 6.078 6.43a8.53 8.53 0 0 0 7.393-1.487 8.525 8.525 0 0 0 3.273-6.684c0-3.178-1.837-6.15-4.681-7.573a8.441 8.441 0 0 0-3.758-.878zm.262 12.098a.763.763 0 0 1 .227.542c0 .204-.081.4-.223.546a.775.775 0 0 1-1.088 0 .765.765 0 0 1 0-1.088.796.796 0 0 1 1.084 0zm2.232-7.101c.535.978.389 2.126-.383 2.996a9.201 9.201 0 0 1-.664.658c-.552.51-.897.85-.956 1.342l-.003.347a.768.768 0 0 1-.768.763h-.007a.77.77 0 0 1-.762-.776l.003-.384c0-.022.001-.045.004-.067.106-1.118.849-1.804 1.446-2.355.202-.187.394-.364.557-.548.199-.224.487-.683.184-1.238-.35-.64-1.204-.82-1.867-.669-.693.159-.948.75-1.04 1.089a.77.77 0 0 1-1.486-.398c.307-1.145 1.102-1.943 2.182-2.19 1.454-.332 2.917.255 3.56 1.43z" id="a"/>
    </defs>
    <g fill="none" fill-rule="evenodd">
        <mask id="b" fill="#fff">
            <use xlink:href="#a"/>
        </mask>
        <use fill="#597d99" fill-rule="nonzero" xlink:href="#a"/>
        <g mask="url(#b)" fill="#597d99">
            <path d="M0 0h32v32H0z"/>
        </g>
    </g>
</svg>
