<svg xmlns="http://www.w3.org/2000/svg" xmlns:xlink="http://www.w3.org/1999/xlink" width="18" height="18" viewBox="0 0 18 18">
    <defs>
        <path id="23a7fefcua" d="M23.512 9.57c-.93-.999-2.234-1.568-3.6-1.57-1.366.002-2.67.57-3.602 1.57l-.317.336-.318-.336c-1.848-1.99-4.96-2.104-6.95-.255-.087.082-.172.167-.254.255-1.961 2.115-1.961 5.384 0 7.499l7.055 7.44c.244.258.65.269.909.025l.024-.025 7.053-7.44c1.96-2.115 1.96-5.383 0-7.498zm-.93 6.614l-6.59 6.95-6.589-6.95c-1.498-1.616-1.498-4.113 0-5.73 1.36-1.474 3.659-1.566 5.133-.206.072.066.14.135.207.207l.783.826c.258.257.675.257.933 0l.784-.826c1.36-1.474 3.658-1.567 5.132-.206.072.066.14.135.207.206 1.511 1.619 1.522 4.12 0 5.729z"/>
    </defs>
    <g fill="none" fill-rule="evenodd">
        <g transform="translate(-1313 -452) translate(70 375) translate(1126 69) translate(110)">
            <use fill="#5a646f" fill-rule="nonzero" xlink:href="#23a7fefcua"/>
        </g>
    </g>
</svg>
