<?xml version="1.0" encoding="UTF-8"?>
<svg width="32px" height="32px" viewBox="0 0 32 32" version="1.1" xmlns="http://www.w3.org/2000/svg" xmlns:xlink="http://www.w3.org/1999/xlink">
    <title>ATOMS/ICONS/log out</title>
    <g id="ATOMS/ICONS/log-out" stroke="none" stroke-width="1" fill="none" fill-rule="evenodd">
        <path d="M5.14666667,17.0208696 C5.14666667,22.9975652 10.0065714,27.8386087 16.0069841,27.8386087 C22.0070476,27.8386087 26.8673016,22.9975652 26.8673016,17.0208696 C26.8673016,12.7412174 24.3764127,9.04973913 20.7582857,7.29182609 L20.7582857,10.4292174 C22.8147619,11.9033043 24.1522222,14.3033043 24.1522222,17.0208696 C24.1522222,21.5033043 20.5072063,25.133913 16.0069841,25.133913 C11.5067619,25.133913 7.86174603,21.5033043 7.86174603,17.0208696 C7.86174603,14.0191304 9.49777778,11.3961739 11.9345397,9.98956522 L11.9345397,6.98782609 C7.95673016,8.59686957 5.14666667,12.4845217 5.14666667,17.0208696 Z" id="Shape" fill="#597D99"></path>
        <path d="M16.0069841,4.17530435 L16.6854921,4.17530435 C17.4320952,4.17530435 18.0432063,4.78365217 18.0432063,5.52765217 L18.0432063,15.6688696 C18.0432063,16.4125217 17.4320952,17.0208696 16.6854921,17.0208696 L16.0069841,17.0208696 C15.2600317,17.0208696 14.6492698,16.4125217 14.6492698,15.6688696 L14.6492698,5.52765217 C14.6492698,4.78365217 15.2600317,4.17530435 16.0069841,4.17530435 Z" id="Shape" fill="#597D99"></path>
    </g>
</svg>