<svg xmlns="http://www.w3.org/2000/svg" width="32" height="32" viewBox="0 0 32 32">
    <defs>
        <filter id="5q3tnl000a">
            <feColorMatrix in="SourceGraphic" values="0 0 0 0 0.496634 0 0 0 0 0.616351 0 0 0 0 0.713966 0 0 0 1.000000 0"/>
        </filter>
    </defs>
    <g fill="none" fill-rule="evenodd">
        <g>
            <g>
                <g filter="url(#5q3tnl000a)" transform="translate(-849 -560) translate(70 546) translate(772 14)">
                    <g>
                        <g fill="#000" fill-rule="nonzero">
                            <path d="M18.443 3.86h-4.23V.556c0-.308-.25-.557-.557-.557H.556C.25 0 0 .25 0 .557v14.398c0 1.535 1.249 2.783 2.783 2.783h13.434c1.534 0 2.783-1.248 2.783-2.783V4.416c0-.307-.25-.557-.557-.557zM2.783 16.624c-.92 0-1.67-.75-1.67-1.67V1.113H13.1c0 14.713-.007 13.895.012 14.105.049.516.241 1.002.546 1.407H2.783zm15.104-1.67c0 .92-.75 1.67-1.67 1.67h-.334c-.921 0-1.67-.75-1.67-1.67V4.973h3.674v9.982z" transform="translate(7) translate(7 7)"/>
                            <path d="M11.281 2.672H2.97c-.308 0-.557.25-.557.557 0 .307.25.556.557.556h8.312c.308 0 .557-.25.557-.556 0-.308-.25-.557-.557-.557zM11.281 5.047H2.97c-.308 0-.557.25-.557.557 0 .307.25.556.557.556h8.312c.308 0 .557-.25.557-.556 0-.308-.25-.557-.557-.557zM11.281 13.953H2.97c-.308 0-.557.25-.557.557 0 .307.25.556.557.556h8.312c.308 0 .557-.249.557-.556 0-.308-.25-.557-.557-.557zM11.281 7.422H7.125c-.307 0-.557.25-.557.557v4.156c0 .307.25.556.557.556h4.156c.308 0 .557-.249.557-.556V7.979c0-.308-.25-.557-.557-.557zm-.556 4.156H7.682V8.535h3.043v3.043zM2.969 9.426H4.75c.307 0 .557-.25.557-.557 0-.307-.25-.556-.557-.556H2.969c-.308 0-.557.249-.557.556 0 .308.25.557.557.557zM2.969 11.8H4.75c.307 0 .557-.248.557-.556 0-.307-.25-.556-.557-.556H2.969c-.308 0-.557.249-.557.556 0 .308.25.557.557.557z" transform="translate(7) translate(7 7)"/>
                        </g>
                    </g>
                </g>
            </g>
        </g>
    </g>
</svg>
