<svg xmlns="http://www.w3.org/2000/svg" width="32" height="32" viewBox="0 0 32 32">
    <defs>
        <filter id="uhp8nvmema">
            <feColorMatrix in="SourceGraphic" values="0 0 0 0 0.496634 0 0 0 0 0.616351 0 0 0 0 0.713966 0 0 0 1.000000 0"/>
        </filter>
    </defs>
    <g fill="none" fill-rule="evenodd">
        <g>
            <g filter="url(#uhp8nvmema)" transform="translate(-762 -380) translate(70 366)">
                <g>
                    <g fill="#000" fill-rule="nonzero">
                        <path d="M3.87 19.953c.265.113.573.018.727-.226l7.031-11.172c.114-.18.121-.409.018-.595-.103-.188-.3-.304-.513-.304H6.44L8.185.73c.07-.28-.072-.569-.337-.683-.263-.113-.572-.018-.726.226L.09 11.445c-.113.18-.12.409-.017.595.103.188.3.304.513.304h4.693L3.533 19.27c-.07.28.072.569.337.683z" transform="translate(692 14) translate(10 6)"/>
                    </g>
                </g>
            </g>
        </g>
    </g>
</svg>
