<svg xmlns="http://www.w3.org/2000/svg" width="24" height="24" viewBox="0 0 24 24">
    <defs>
        <filter id="c8y8cc999a">
            <feColorMatrix in="SourceGraphic" values="0 0 0 0 1.000000 0 0 0 0 0.000000 0 0 0 0 0.296907 0 0 0 1.000000 0"/>
        </filter>
    </defs>
    <g fill="none" fill-rule="evenodd">
        <g>
            <g filter="url(#c8y8cc999a)" transform="translate(-485 -483) translate(445 258)">
                <g>
                    <path fill="#A9A9A9" d="M18.19 7.36c.62 0 1.12-.465 1.12-1.028 0-.573-.5-1.029-1.12-1.029-.62 0-1.13.456-1.13 1.029 0 .563.51 1.029 1.13 1.029zM21 4.78v6.192c0 .262-.11.524-.33.728l-9 8.25c-.22.204-.51.301-.79.301-.29 0-.58-.097-.8-.301l-6.75-6.192c-.22-.194-.33-.466-.33-.728 0-.262.11-.524.33-.728l8.99-8.24c.21-.194.49-.311.81-.311h6.75c.62 0 1.12.466 1.12 1.029z" transform="translate(40 225)"/>
                </g>
            </g>
        </g>
    </g>
</svg>
