<svg xmlns="http://www.w3.org/2000/svg" xmlns:xlink="http://www.w3.org/1999/xlink" width="18" height="18" viewBox="0 0 18 18">
    <defs>
        <path id="4w8no4fiia" d="M25 18.963l-2.805 2.85-2.826-2.863.992-1.013 1.12 1.135V12.15c.002-.19-.07-.367-.2-.5-.133-.136-.309-.21-.497-.21h-7.567l-1.411-1.43h8.978c.565 0 1.096.224 1.494.631.396.406.612.944.61 1.515v6.934l1.119-1.137.993 1.011zm-6.47 1.411h-7.314c-.188 0-.364-.074-.497-.21-.13-.134-.202-.311-.2-.5V12.74l1.12 1.135.992-1.013L9.805 10 7 12.85l.993 1.01 1.12-1.136v6.933c-.003.572.213 1.11.61 1.515.397.407.928.632 1.493.632h8.978l-1.411-1.43h-.253z"/>
    </defs>
                <g transform="translate(-1203 -454) translate(70 375) translate(1126 69)">
                    <use fill="#5a646f" fill-rule="nonzero" xlink:href="#4w8no4fiia"/>
                </g>

</svg>
