<?xml version="1.0" encoding="UTF-8"?>
<svg width="32px" height="32px" viewBox="0 0 32 32" version="1.1" xmlns="http://www.w3.org/2000/svg" xmlns:xlink="http://www.w3.org/1999/xlink">
    <title>ATOMS/ICONS/save</title>
    <defs>
        <path d="M20,6 C20.2652165,6 20.5195704,6.10535684 20.7071068,6.29289322 L20.7071068,6.29289322 L25.7071068,11.2928932 C25.8946432,11.4804296 26,11.7347835 26,12 L26,12 L26,23 C26,24.6568542 24.6568542,26 23,26 L23,26 L9,26 C7.34314575,26 6,24.6568542 6,23 L6,23 L6,9 C6,7.34314575 7.34314575,6 9,6 L9,6 Z M19.585,8 L12,8 L12,11 L19,11 C19.5128358,11 19.9355072,11.3860402 19.9932723,11.8833789 L20,12 C20,12.5128358 19.6139598,12.9355072 19.1166211,12.9932723 L19,13 L11,13 C10.4871642,13 10.0644928,12.6139598 10.0067277,12.1166211 L10,12 L10,8 L9,8 C8.48716416,8 8.06449284,8.38604019 8.00672773,8.88337887 L8,9 L8,23 C8,23.5522847 8.44771525,24 9,24 L9,24 L10,24 L10,17 C10,16.4871642 10.3860402,16.0644928 10.8833789,16.0067277 L11,16 L21,16 C21.5128358,16 21.9355072,16.3860402 21.9932723,16.8833789 L22,17 L22,24 L23,24 C23.5128358,24 23.9355072,23.6139598 23.9932723,23.1166211 L24,23 L24,12.415 L19.585,8 Z M20,18 L12,18 L12,24 L20,24 L20,18 Z" id="path-1"></path>
    </defs>
    <g id="ATOMS/ICONS/save" stroke="none" stroke-width="1" fill="none" fill-rule="evenodd">
        <mask id="mask-2" fill="white">
            <use xlink:href="#path-1"></use>
        </mask>
        <use id="Combined-Shape" fill="#000000" xlink:href="#path-1"></use>
        <g id="ATOMS/COLORS/corporativo_4-Copy" mask="url(#mask-2)" fill="#5A646F">
            <rect id="Rectangle-12" x="0" y="0" width="76" height="76"></rect>
        </g>
    </g>
</svg>