<svg xmlns="http://www.w3.org/2000/svg" width="31" height="31" viewBox="0 0 477.87 477.87"><defs><style>.cls-1{fill:#00e3a1;}</style></defs><title>success</title><g id="Capa_2" data-name="Capa 2"><g id="Capa_1-2" data-name="Capa 1"><path class="cls-1" d="M238.93,0C107,0,0,107,0,238.93S107,477.87,238.93,477.87s238.94-107,238.94-238.94S370.83.14,238.93,0Zm0,443.73c-113.1,0-204.8-91.69-204.8-204.8s91.7-204.8,204.8-204.8,204.8,91.7,204.8,204.8S352,443.61,238.93,443.73Z"/><path class="cls-1" d="M370.05,141.53a17.09,17.09,0,0,0-23.72,0h0l-158.6,158.6-56.2-56.2A17.07,17.07,0,1,0,107,267.65l.42.41,68.27,68.27a17.07,17.07,0,0,0,24.13,0L370.47,165.66A17.07,17.07,0,0,0,370.05,141.53Z"/></g></g></svg>