<svg xmlns="http://www.w3.org/2000/svg" width="18" height="18" viewBox="0 0 18 18">
    <defs>
        <filter id="rylsb6va5a">
            <feColorMatrix in="SourceGraphic" values="0 0 0 0 0.227451 0 0 0 0 0.270588 0 0 0 0 0.341176 0 0 0 1.000000 0"/>
        </filter>
    </defs>
    <g fill="none" fill-rule="evenodd">
        <g>
            <g>
                <g filter="url(#rylsb6va5a)" transform="translate(-492 -383) translate(445 258) translate(37 119)">
                    <g>
                        <path fill="#A9A9A9" d="M13.642 5.52c.465 0 .84-.349.84-.771 0-.43-.375-.772-.84-.772-.465 0-.847.343-.847.772 0 .422.382.772.847.772zm2.108-1.936v4.644c0 .197-.083.394-.248.546l-6.75 6.188c-.164.153-.382.226-.592.226-.218 0-.435-.073-.6-.226l-5.063-4.644c-.165-.146-.247-.35-.247-.546 0-.197.082-.394.247-.546l6.743-6.18c.157-.146.367-.233.607-.233h5.063c.465 0 .84.349.84.771z" transform="translate(10 6)"/>
                    </g>
                </g>
            </g>
        </g>
    </g>
</svg>
