<?xml version="1.0" encoding="UTF-8"?>
<svg width="32px" height="32px" viewBox="0 0 32 32" version="1.1" xmlns="http://www.w3.org/2000/svg" xmlns:xlink="http://www.w3.org/1999/xlink">
    <title>ATOMS/ICONS/bulk_tag</title>
    <g id="ATOMS/ICONS/bulk_tag" stroke="none" stroke-width="1" fill="none" fill-rule="evenodd">
        <g id="supermarket" transform="translate(7.000000, 7.000000)" fill="#5A646F" fill-rule="nonzero">
            <path d="M16.052625,2.547975 L10.7379,2.547975 C10.2274125,2.547975 9.7475625,2.7467625 9.386625,3.1077375 L1.8702,10.6242 C1.509225,10.9851375 1.3104375,11.465025 1.3104375,11.975475 C1.3104375,12.485925 1.509225,12.9658125 1.8702,13.32675 L7.18485,18.64125 C7.557375,19.013775 8.04675,19.2 8.5360875,19.2 C9.025425,19.2 9.5148,19.0137375 9.887325,18.641175 L17.403825,11.124675 C17.7648,10.7637 17.9635875,10.28385 17.9635875,9.7734 L17.9635875,4.4589 C17.9635875,3.405225 17.1063375,2.547975 16.052625,2.547975 Z M13.50465,8.917875 C12.4509375,8.917875 11.5936875,8.060625 11.5936875,7.0069125 C11.5936875,5.9532 12.4509375,5.09595 13.50465,5.09595 C14.5583625,5.09595 15.4156125,5.9532 15.4156125,7.0069125 C15.4156125,8.060625 14.5583625,8.917875 13.50465,8.917875 Z" id="Shape"></path>
            <path d="M14.7786375,0 L9.4639125,0 C8.953425,0 8.473575,0.1987875 8.1126375,0.5597625 L0.5962125,8.076225 C0.2352375,8.4371625 0.03645,8.91705 0.03645,9.4275 C0.03645,9.8267625 0.15855,10.20705 0.3843,10.526625 C0.5342625,10.23375 0.7300125,9.962625 0.9694125,9.7233 L8.4858,2.2068375 C9.0873375,1.6053 9.8871375,1.2739875 10.7379,1.2739875 L16.05255,1.2739875 C16.237875,1.2739875 16.4193,1.2907875 16.5960375,1.32135 C16.346925,0.555375 15.6265875,0 14.7786375,0 Z" id="Path"></path>
        </g>
    </g>
</svg>