<svg xmlns="http://www.w3.org/2000/svg" xmlns:xlink="http://www.w3.org/1999/xlink" width="32" height="32" viewBox="0 0 32 32">
    <defs>
        <filter id="9e6z2x86ma">
            <feColorMatrix in="SourceGraphic" values="0 0 0 0 0.496634 0 0 0 0 0.616351 0 0 0 0 0.713966 0 0 0 1.000000 0"/>
        </filter>
        <path id="4xt7dl35bb" d="M18.256 6c1.417 0 2.565 1.119 2.565 2.5v1.911c1.573 1.374 2.564 3.368 2.564 5.589 0 2.22-.991 4.215-2.564 5.589V23.5c0 1.381-1.148 2.5-2.565 2.5h-5.128c-1.416 0-2.564-1.119-2.564-2.5v-1.911C8.991 20.215 8 18.22 8 16c0-2.22.99-4.215 2.564-5.589V8.5c0-1.381 1.148-2.5 2.564-2.5zm.855 16.719c-1.03.499-2.19.781-3.419.781-1.228 0-2.388-.282-3.418-.781v.781c0 .46.382.833.854.833h5.128c.473 0 .855-.373.855-.833zm-3.419-12.552c-3.304 0-5.983 2.611-5.983 5.833s2.679 5.833 5.983 5.833c3.305 0 5.983-2.611 5.983-5.833s-2.678-5.833-5.983-5.833zm.164 1.218c.516 0 .934.381.934.852v3.057l1.706 1.559c.365.333.364.872 0 1.205-.364.333-.955.333-1.32 0l-1.979-1.807c-.044-.04-.083-.084-.117-.131-.015-.02-.025-.042-.037-.063-.017-.028-.035-.055-.049-.084-.012-.027-.02-.056-.028-.084-.008-.025-.019-.05-.024-.075-.012-.053-.018-.107-.018-.161v-3.416c0-.47.417-.852.932-.852zm2.4-3.718h-5.128c-.472 0-.854.373-.854.833v.781c1.03-.499 2.19-.781 3.418-.781 1.229 0 2.39.282 3.42.781V8.5c0-.46-.383-.833-.856-.833z"/>
    </defs>
    <g fill="none" fill-rule="evenodd">
        <g>
            <g filter="url(#9e6z2x86ma)" transform="translate(-762 -320) translate(70 306)">
                <g transform="translate(692 14)">
                    <mask id="fcct7cpa5c" fill="#fff">
                        <use xlink:href="#4xt7dl35bb"/>
                    </mask>
                    <use fill="#000" fill-rule="nonzero" xlink:href="#4xt7dl35bb"/>
                    <g fill="#000" mask="url(#fcct7cpa5c)">
                        <path d="M0 0H32V32H0z"/>
                    </g>
                </g>
            </g>
        </g>
    </g>
</svg>
