<svg xmlns="http://www.w3.org/2000/svg" width="18" height="18" viewBox="0 0 18 18">
    <defs>
        <filter id="zcs0fjpdta">
            <feColorMatrix in="SourceGraphic" values="0 0 0 0 0.347741 0 0 0 0 0.488439 0 0 0 0 0.600901 0 0 0 1.000000 0"/>
        </filter>
    </defs>
    <g fill="none" fill-rule="evenodd">
        <g>
            <g>
                <g filter="url(#zcs0fjpdta)" transform="translate(-1081 -443) translate(260 128) translate(811 309)">
                    <g>
                        <path fill="#9B9B9B" fill-rule="nonzero" stroke="#979797" stroke-width=".5" d="M13.201 4.501c.774.753.774 1.98 0 2.74L8.69 11.626c-.223.221-.52.341-.842.341-.643.007-1.2-.538-1.194-1.164 0-.31.124-.6.353-.823l3.942-3.833c.154-.152.408-.152.563 0 .154.151.154.398 0 .55L7.57 10.53c-.08.076-.124.17-.124.278 0 .203.186.387.402.387.106 0 .205-.045.279-.114l4.51-4.385c.465-.456.465-1.196 0-1.645-.463-.456-1.218-.45-1.688 0L5.88 9.987c-.78.753-.78 1.98-.006 2.733.78.76 2.043.753 2.816 0l3.942-3.834c.16-.152.409-.152.563 0 .161.145.155.392 0 .544l-3.942 3.835c-1.089 1.062-2.852 1.062-3.942.006-1.083-1.057-1.083-2.778.007-3.835l5.068-4.928c.779-.76 2.042-.76 2.815-.007z" transform="translate(10 6)"/>
                    </g>
                </g>
            </g>
        </g>
    </g>
</svg>
