<?xml version="1.0" encoding="UTF-8"?>
<svg width="32px" height="32px" viewBox="0 0 32 32" version="1.1" xmlns="http://www.w3.org/2000/svg" xmlns:xlink="http://www.w3.org/1999/xlink">
    <g id="ATOMS/ICONS/translate" stroke="none" stroke-width="1" fill="none" fill-rule="evenodd">
        <g id="translate-(2)" transform="translate(7.000000, 7.000000)" fill="#597d99">
            <path d="M10.2368362,11.289517 L8.04629787,9.12485106 L8.07217021,9.09897872 C9.57276596,7.42588723 10.6421426,5.5027234 11.2717298,3.46741915 L12.9340479,3.46741915 C13.4115315,3.46741915 13.7986085,3.08034217 13.7986085,2.60285851 C13.7986085,2.12537485 13.4115315,1.73829787 12.9340479,1.73829787 L7.76170213,1.73829787 L7.76170213,1.73829787 L7.76170213,0.875879787 C7.76170213,0.399579431 7.3755844,0.0134617021 6.89928404,0.0134617021 C6.42298369,0.0134617021 6.03686596,0.399579431 6.03686596,0.875879787 L6.03686596,1.73829787 L6.03686596,1.73829787 L0.858092553,1.73829787 C0.384181122,1.73829787 -5.80374117e-17,2.12247899 0,2.59639043 C-1.52421541e-16,3.07030186 0.384181122,3.45448298 0.858092553,3.45448298 L9.63312128,3.45448298 L9.63312128,3.45448298 C9.05099362,5.1189234 8.14113617,6.69713617 6.89926383,8.07702128 C6.09722128,7.18442553 5.43315106,6.21421277 4.90709362,5.18792979 L3.18229787,5.18792979 C3.81184468,6.59364681 4.67428298,7.92178723 5.75227021,9.12052553 L1.98068161,12.8476116 C1.64370985,13.1806073 1.64048661,13.7237232 1.9734823,14.060695 C1.97467505,14.061902 1.97587138,14.0631054 1.97707128,14.0643053 C2.31405487,14.4012889 2.86041322,14.4012889 3.19739681,14.0643053 L6.89930426,10.3623979 L6.89930426,10.3623979 L9.58141702,13.0445106 L10.2368362,11.289517 Z" fill="#597d99" id="Path"></path>
            <path fill="#597d99" d="M14.3991846,6.91276596 L14.0603494,6.91276596 C13.6435048,6.91276596 13.2703841,7.17133879 13.1240202,7.56164252 L9.78931308,16.4541949 C9.67341553,16.763255 9.83000474,17.1077513 10.1390649,17.2236489 C10.206168,17.2488125 10.2772498,17.2617021 10.348916,17.2617021 L10.5183336,17.2617021 C10.9351781,17.2617021 11.3082989,17.0031293 11.4546628,16.6128256 L12.1815468,14.6744681 L12.1815468,14.6744681 L16.2779872,14.6744681 L17.0048713,16.6128256 C17.1512352,17.0031293 17.5243559,17.2617021 17.9412005,17.2617021 L18.1106181,17.2617021 C18.4406945,17.2617021 18.7082742,16.9941224 18.7082742,16.664046 C18.7082742,16.5923799 18.6953846,16.521298 18.670221,16.4541949 L15.3355138,7.56164252 C15.1891499,7.17133879 14.8160292,6.91276596 14.3991846,6.91276596 Z M12.8283553,12.9496319 L14.2297872,9.21107872 L15.6312191,12.9496319 L12.8283553,12.9496319 Z" id="Shape"></path>
        </g>
    </g>
</svg>