<svg xmlns="http://www.w3.org/2000/svg" xmlns:xlink="http://www.w3.org/1999/xlink" width="32" height="32" viewBox="0 0 32 32">
    <defs>
        <path id="ttfzu16w5a" d="M16 18.676c-.444 0-.802.35-.802.784 0 .427.358.776.802.776.445 0 .802-.35.802-.776 0-.434-.357-.784-.802-.784zM10.135 9.56c-.293 0-.532.24-.532.528v6.766c0 .287.239.52.532.52h11.73c.294 0 .532-.233.532-.52v-6.766c0-.287-.238-.528-.532-.528h-11.73zM9.603 8h12.794C23.277 8 24 8.706 24 9.56v10.42c0 .854-.722 1.56-1.603 1.56h-4.262v.783c0 .427.357.784.801.784H20c.436 0 .801.35.801.776 0 .435-.365.784-.801.784h-8c-.437 0-.802-.35-.802-.784 0-.427.365-.776.802-.776h1.071c.437 0 .794-.357.794-.784v-.783H9.603C8.723 21.54 8 20.84 8 19.98V9.56C8 8.706 8.723 8 9.603 8z"/>
    </defs>
    <g fill="none" fill-rule="evenodd">
        <g>
            <g>
                <g transform="translate(-19 -292) translate(0 10) translate(19 282)">
                    <mask id="xv93hdtv9b" fill="#fff">
                        <use xlink:href="#ttfzu16w5a"/>
                    </mask>
                    <use fill="#9B9B9B" xlink:href="#ttfzu16w5a"/>
                    <g fill="#5A646F" mask="url(#xv93hdtv9b)">
                        <path d="M0 0H32V32H0z"/>
                    </g>
                </g>
            </g>
        </g>
    </g>
</svg>
