<svg xmlns="http://www.w3.org/2000/svg" xmlns:xlink="http://www.w3.org/1999/xlink" width="32" height="32" viewBox="0 0 32 32">
    <defs>
        <path id="bshofqrxja" d="M19.463 8.351l-.002-.001L11.302.518C10.954.184 10.492 0 10 0s-.954.184-1.302.518L.543 8.346l-.008.008c-.714.69-.713 1.808.003 2.496.328.314.76.496 1.222.515l.057.003h.325v5.763c0 1.141.967 2.069 2.155 2.069H7.49c.324 0 .586-.252.586-.563V14.12c0-.52.442-.944.984-.944h1.883c.542 0 .983.423.983.944v4.518c0 .311.262.563.586.563h3.192c1.188 0 2.155-.928 2.155-2.069v-5.763h.302c.491 0 .954-.184 1.302-.518.717-.689.717-1.81 0-2.499zm-.83 1.703c-.126.122-.295.189-.473.189h-.888c-.324 0-.586.252-.586.562v6.326c0 .52-.44.944-.983.944h-2.606v-3.956c0-1.14-.967-2.069-2.155-2.069H9.059c-1.189 0-2.156.928-2.156 2.069v3.956H4.297c-.542 0-.983-.423-.983-.944v-6.326c0-.31-.262-.562-.586-.562h-.872l-.028-.001c-.174-.003-.338-.07-.46-.188-.262-.25-.262-.658 0-.909l8.159-7.832c.126-.121.294-.188.473-.188s.347.067.473.188l8.157 7.83.004.004c.26.25.26.657-.001.907z"/>
    </defs>
    <g fill="none" fill-rule="evenodd">
        <g>
            <g>
                <g>
                    <g transform="translate(-19 -107) translate(0 10) translate(19 97) translate(6 6)">
                        <mask id="55asd9lmsb" fill="#fff">
                            <use xlink:href="#bshofqrxja"/>
                        </mask>
                        <use fill="#000" fill-rule="nonzero" xlink:href="#bshofqrxja"/>
                        <g fill="#5A646F" mask="url(#55asd9lmsb)">
                            <path d="M0 0H32V32H0z" transform="translate(-6 -6)"/>
                        </g>
                    </g>
                </g>
            </g>
        </g>
    </g>
</svg>
