<svg xmlns="http://www.w3.org/2000/svg" xmlns:xlink="http://www.w3.org/1999/xlink" width="28" height="29" viewBox="0 0 28 29">
    <defs>
        <path id="n9aoq897pa" d="M17.5 5.25c.232 0 .455.092.619.256l4.375 4.375c.164.164.256.387.256.619v9.625c0 1.45-1.175 2.625-2.625 2.625H7.875c-1.45 0-2.625-1.175-2.625-2.625V7.875c0-1.45 1.175-2.625 2.625-2.625zM17.137 7H10.5v2.625h6.125c.449 0 .819.338.87.773l.005.102c0 .449-.338.819-.773.87l-.102.005h-7c-.449 0-.819-.338-.87-.773L8.75 10.5V7h-.875c-.446 0-.814.334-.868.765L7 7.875v12.25c0 .483.392.875.875.875h.875v-6.125c0-.449.338-.819.773-.87L9.625 14h8.75c.449 0 .819.338.87.773l.005.102V21h.875c.446 0 .814-.334.868-.765l.007-.11v-9.262L17.137 7zm.363 8.75h-7V21h7v-5.25z"/>
    </defs>
    <g fill="none" fill-rule="evenodd">
        <g>
            <g>
                <g transform="translate(-21 -412) translate(0 10) translate(21 402.5)">
                    <mask id="2np8gmgz6b" fill="#fff">
                        <use xlink:href="#n9aoq897pa"/>
                    </mask>
                    <use fill="#000" xlink:href="#n9aoq897pa"/>
                    <g fill="#5A646F" mask="url(#2np8gmgz6b)">
                        <path d="M0 0H28V28H0z"/>
                    </g>
                </g>
            </g>
        </g>
    </g>
</svg>
