<svg xmlns="http://www.w3.org/2000/svg" xmlns:xlink="http://www.w3.org/1999/xlink" width="32" height="32" viewBox="0 0 32 32">
    <defs>
        <path id="5rdnudxwpa" d="M10.667 9.898c-.922 0-1.667.728-1.667 1.628v10.846c0 .9.745 1.628 1.667 1.628h10c.922 0 1.666-.728 1.666-1.628V11.526c0-.9-.744-1.628-1.666-1.628h-1.111v1.898c0 .601-.5 1.087-1.111 1.087h-5.556c-.611 0-1.11-.486-1.11-1.087V9.898h-1.112zm1.944 10.306h5.833c.461 0 .834.364.834.811 0 .453-.373.817-.834.817h-5.833c-.46 0-.833-.364-.833-.817 0-.447.372-.81.833-.81zm0-2.714h5.833c.461 0 .834.363.834.816 0 .447-.373.81-.834.81h-5.833c-.46 0-.833-.363-.833-.81 0-.452.372-.816.833-.816zm0-2.71h5.833c.461 0 .834.365.834.811 0 .453-.373.817-.834.817h-5.833c-.46 0-.833-.364-.833-.817 0-.446.372-.81.833-.81zm1.39-5.693c-.612 0-1.112.485-1.112 1.081v.546c0 .596.5 1.082 1.111 1.082h3.333c.612 0 1.112-.486 1.112-1.082v-.546c0-.596-.5-1.081-1.112-1.081h-.555c0-.602-.5-1.087-1.111-1.087s-1.111.485-1.111 1.087H14z"/>
    </defs>
    <g fill="none" fill-rule="evenodd">
        <g>
            <g>
                <g transform="translate(-19 -197) translate(0 10) translate(19 187)">
                    <mask id="pmb5nsg29b" fill="#fff">
                        <use xlink:href="#5rdnudxwpa"/>
                    </mask>
                    <use fill="#9B9B9B" xlink:href="#5rdnudxwpa"/>
                    <g fill="#5A646F" mask="url(#pmb5nsg29b)">
                        <path d="M0 0H32V32H0z"/>
                    </g>
                </g>
            </g>
        </g>
    </g>
</svg>
