<svg xmlns="http://www.w3.org/2000/svg" xmlns:xlink="http://www.w3.org/1999/xlink" width="32" height="32" viewBox="0 0 32 32">
    <defs>
        <path id="pre7mxc20a" d="M24 5c1.657 0 3 1.343 3 3v16c0 1.657-1.343 3-3 3H8c-1.657 0-3-1.343-3-3V8c0-1.657 1.343-3 3-3zm0 2H8c-.553 0-1 .447-1 1v16c0 .552.447 1 1 1h16c.552 0 1-.448 1-1V8c0-.553-.448-1-1-1zm-8 4c.552 0 1 .448 1 1v3h3c.552 0 1 .448 1 1s-.448 1-1 1h-3v3c0 .552-.448 1-1 1s-1-.448-1-1v-3h-3c-.552 0-1-.448-1-1s.448-1 1-1h3v-3c0-.552.448-1 1-1z"/>
    </defs>
    <g fill="none" fill-rule="evenodd">
        <g>
            <g>
                <g transform="translate(-89 -865) translate(85 861) translate(4 4)">
                    <mask id="pvdoq4kyab" fill="#fff">
                        <use xlink:href="#pre7mxc20a"/>
                    </mask>
                    <use fill="#000" fill-rule="nonzero" xlink:href="#pre7mxc20a"/>
                    <g fill="#FFF" mask="url(#pvdoq4kyab)">
                        <path d="M0 0H32V32H0z"/>
                    </g>
                </g>
            </g>
        </g>
    </g>
</svg>
