<?xml version="1.0" encoding="UTF-8"?>
<svg width="22px" height="22px" viewBox="0 0 22 22" version="1.1" xmlns="http://www.w3.org/2000/svg" xmlns:xlink="http://www.w3.org/1999/xlink">
    <title>delete_icon</title>
    <defs>
        <path d="M16,5 C22.075,5 27,9.92475 27,16 C27,22.07525 22.075,27 16,27 C9.925,27 5,22.07525 5,16 C5,9.92475 9.925,5 16,5 Z M16,7 C11.0295,7 7,11.0295 7,16 C7,20.9705 11.0295,25 16,25 C20.9705,25 25,20.9705 25,16 C25,11.0295 20.9705,7 16,7 Z M12.3060045,12.3060245 C12.7140105,11.8979918 13.3756489,11.8979918 13.7836549,12.3060245 L13.7836549,12.3060245 L16,14.5222531 L18.2160838,12.3060245 C18.6240899,11.8979918 19.2859895,11.8979918 19.6939955,12.3060245 C20.1020015,12.7137959 20.1020015,13.3754776 19.6939955,13.7835102 L19.6939955,13.7835102 L17.4776504,16 L19.6939955,18.2164898 C20.1020015,18.624 20.1020015,19.2859429 19.6939955,19.6939755 C19.2859895,20.1020082 18.6240899,20.1020082 18.2160838,19.6939755 L18.2160838,19.6939755 L16,17.4777469 L13.7836549,19.6939755 C13.3756489,20.1020082 12.7140105,20.1020082 12.3060045,19.6939755 C11.8979985,19.2862041 11.8979985,18.6245224 12.3060045,18.2164898 L12.3060045,18.2164898 L14.5223496,16 L12.3060045,13.7835102 C11.8979985,13.376 11.8979985,12.7140571 12.3060045,12.3060245 Z" id="path-1"></path>
    </defs>
    <g id="Symbols" stroke="none" stroke-width="1" fill="none" fill-rule="evenodd">
        <g id="ATOMS/ICONS/delete" transform="translate(-5.000000, -5.000000)">
            <mask id="mask-2" fill="white">
                <use xlink:href="#path-1"></use>
            </mask>
            <use id="delete_icon" fill="#ff004c" fill-rule="nonzero" xlink:href="#path-1"></use>
        </g>
    </g>
</svg>