<svg xmlns="http://www.w3.org/2000/svg" xmlns:xlink="http://www.w3.org/1999/xlink" aria-hidden="true" focusable="false" width="32" height="32" style="-ms-transform: rotate(360deg); -webkit-transform: rotate(360deg); transform: rotate(360deg);" preserveAspectRatio="xMidYMid meet" viewBox="0 0 24 24"><g fill="none"><path d="M7.25 4.5h3.5a.75.75 0 0 1 .101 1.493L10.75 6h-3.5a2.249 2.249 0 0 0-2.241 2.061L5 8.22l.003 8.53A2.25 2.25 0 0 0 7.1 18.995l.154.005l8.498-.012a2.25 2.25 0 0 0 2.242-2.096l.005-.154v-3.506a.75.75 0 0 1 1.493-.102l.007.102v3.506a3.75 3.75 0 0 1-3.546 3.745l-.2.005l-8.495.012l-.203-.005a3.75 3.75 0 0 1-3.547-3.545l-.005-.2l-.002-8.497l.004-.203a3.75 3.75 0 0 1 3.546-3.545l.2-.005h3.498H7.25zM14.004 3l6.05.001l.1.01l.081.017l.108.032l.119.052l.053.03c.26.155.442.424.48.738L21 4v6.007a1 1 0 0 1-1.993.117l-.006-.117L19 6.413l-6.294 6.294a1 1 0 0 1-1.32.083l-.094-.083a1 1 0 0 1-.083-1.32l.083-.094L17.585 5h-3.581a1 1 0 0 1-.994-.883L13.004 4a1 1 0 0 1 1-1z" fill="#5a646f"/></g></svg>