<svg xmlns="http://www.w3.org/2000/svg" xmlns:xlink="http://www.w3.org/1999/xlink" width="32" height="33" viewBox="0 0 32 33">
    <defs>
        <path id="ypedm4988a" d="M16 8c-5.09 0-8 2.182-8 2.182v11.636S10.91 24 16 24s8-2.182 8-2.182V10.182S21.09 8 16 8zm-6.545 2.992c.311-.17.742-.382 1.284-.593 1.107-.431 2.918-.944 5.261-.944s4.154.513 5.261.944c.542.21.974.423 1.284.593v4.197c-.31.171-.743.384-1.283.595-1.107.43-2.92.943-5.262.943-2.342 0-4.155-.512-5.262-.943-.542-.211-.973-.424-1.283-.595v-4.197zm11.806 10.61c-1.107.43-2.918.943-5.261.943s-4.154-.513-5.261-.944c-.542-.21-.974-.423-1.284-.593v-4.193c1.339.62 3.567 1.367 6.545 1.367 2.978 0 5.206-.746 6.545-1.367v4.193c-.311.17-.742.382-1.284.593z"/>
    </defs>
    <g fill="none" fill-rule="evenodd" opacity=".8">
        <g>
            <g>
                <g transform="translate(-632 -18) translate(613) translate(19 18.08)">
                    <mask id="lij6132n5b" fill="#fff">
                        <use xlink:href="#ypedm4988a"/>
                    </mask>
                    <use fill="#000" fill-rule="nonzero" xlink:href="#ypedm4988a"/>
                    <g fill="#DEDEDE" mask="url(#lij6132n5b)">
                        <path d="M0 0H32V32H0z"/>
                    </g>
                </g>
            </g>
        </g>
    </g>
</svg>
