<?xml version="1.0" encoding="UTF-8"?>
<svg width="20px" height="15px" viewBox="0 0 20 15" version="1.1" xmlns="http://www.w3.org/2000/svg" xmlns:xlink="http://www.w3.org/1999/xlink">
    <title>Combined Shape</title>
    <defs>
        <path d="M16,9 C22.6666667,9 26,16.5 26,16.5 C26,16.5 22.6666667,24 16,24 C9.57142857,24 6.24234694,17.0583052 6.0127551,16.5624698 L6,16.5345833 L6,16.5345833 L6.0127551,16.5064385 C6.24234694,16.0060092 9.57142857,9 16,9 Z M16,10.6666667 C11.594375,10.6666667 8.8125,14.854375 7.875625,16.5310417 C8.813125,18.19125 11.594375,22.3333333 16,22.3333333 C20.4052083,22.3333333 23.18625,18.17 24.1245833,16.5 C23.1879167,14.8329167 20.40625,10.6666667 16,10.6666667 Z M16,14 C17.6569375,14 19,15.34325 19,17 C19,18.6569375 17.6569375,20 16,20 C14.34325,20 13,18.6569375 13,17 C13,15.34325 14.34325,14 16,14 Z M16,15.5 C15.1729375,15.5 14.5,16.1729375 14.5,17 C14.5,17.8270625 15.1729375,18.5 16,18.5 C16.8270625,18.5 17.5,17.8270625 17.5,17 C17.5,16.1729375 16.8270625,15.5 16,15.5 Z" id="path-1"></path>
    </defs>
    <g id="Symbols" stroke="none" stroke-width="1" fill="none" fill-rule="evenodd">
        <g id="ATOMS/ICONS/view" transform="translate(-6.000000, -9.000000)">
            <mask id="mask-2" fill="white">
                <use xlink:href="#path-1"></use>
            </mask>
            <use id="Combined-Shape" fill="#000000" fill-rule="nonzero" xlink:href="#path-1"></use>
        </g>
    </g>
</svg>