<svg xmlns="http://www.w3.org/2000/svg" xmlns:xlink="http://www.w3.org/1999/xlink" width="32" height="33" viewBox="0 0 32 33">
    <defs>
        <path id="ia9yuav5ga" d="M16 8c1.205 0 2.182.977 2.182 2.182v11.636C18.182 23.023 17.205 24 16 24s-2.182-.977-2.182-2.182V10.182C13.818 8.977 14.795 8 16 8zm-5.818 8.727c1.205 0 2.182.977 2.182 2.182v2.91c0 1.204-.977 2.181-2.182 2.181S8 23.023 8 21.818V18.91c0-1.205.977-2.182 2.182-2.182zm11.636-4.363c1.205 0 2.182.977 2.182 2.181v7.273C24 23.023 23.023 24 21.818 24s-2.182-.977-2.182-2.182v-7.273c0-1.204.977-2.181 2.182-2.181zM16 9.454c-.402 0-.727.326-.727.728v11.636c0 .402.325.727.727.727.402 0 .727-.325.727-.727V10.182c0-.402-.325-.727-.727-.727zm-5.818 8.728c-.402 0-.727.325-.727.727v2.91c0 .4.325.726.727.726.401 0 .727-.325.727-.727V18.91c0-.402-.326-.727-.727-.727zm11.636-4.364c-.401 0-.727.326-.727.727v7.273c0 .402.326.727.727.727.402 0 .727-.325.727-.727v-7.273c0-.401-.325-.727-.727-.727z"/>
    </defs>
    <g fill="none" fill-rule="evenodd" opacity=".8">
        <g>
            <g>
                <g transform="translate(-360 -18) translate(341) translate(19 18.08)">
                    <mask id="xn6wqic14b" fill="#fff">
                        <use xlink:href="#ia9yuav5ga"/>
                    </mask>
                    <use fill="#000" fill-rule="nonzero" xlink:href="#ia9yuav5ga"/>
                    <g fill="#DEDEDE" mask="url(#xn6wqic14b)">
                        <path d="M0 0H32V32H0z"/>
                    </g>
                </g>
            </g>
        </g>
    </g>
</svg>
