<?xml version="1.0" encoding="UTF-8"?>
<svg width="16px" height="16px" viewBox="0 0 16 16" version="1.1" xmlns="http://www.w3.org/2000/svg" xmlns:xlink="http://www.w3.org/1999/xlink">
    <title>bar_icon</title>
    <defs>
        <path d="M16,8 C17.2049091,8 18.1818182,8.97690909 18.1818182,10.1818182 L18.1818182,10.1818182 L18.1818182,21.8181818 C18.1818182,23.0230909 17.2049091,24 16,24 C14.7950909,24 13.8181818,23.0230909 13.8181818,21.8181818 L13.8181818,21.8181818 L13.8181818,10.1818182 C13.8181818,8.97690909 14.7950909,8 16,8 Z M10.1818182,16.7272727 C11.3867273,16.7272727 12.3636364,17.7041818 12.3636364,18.9090909 L12.3636364,18.9090909 L12.3636364,21.8181818 C12.3636364,23.0230909 11.3867273,24 10.1818182,24 C8.97690909,24 8,23.0230909 8,21.8181818 L8,21.8181818 L8,18.9090909 C8,17.7041818 8.97690909,16.7272727 10.1818182,16.7272727 Z M21.8181818,12.3636364 C23.0230909,12.3636364 24,13.3405455 24,14.5454545 L24,14.5454545 L24,21.8181818 C24,23.0230909 23.0230909,24 21.8181818,24 C20.6132727,24 19.6363636,23.0230909 19.6363636,21.8181818 L19.6363636,21.8181818 L19.6363636,14.5454545 C19.6363636,13.3405455 20.6132727,12.3636364 21.8181818,12.3636364 Z M16,9.45454545 C15.5983636,9.45454545 15.2727273,9.78018182 15.2727273,10.1818182 L15.2727273,10.1818182 L15.2727273,21.8181818 C15.2727273,22.2198182 15.5983636,22.5454545 16,22.5454545 C16.4016364,22.5454545 16.7272727,22.2198182 16.7272727,21.8181818 L16.7272727,21.8181818 L16.7272727,10.1818182 C16.7272727,9.78018182 16.4016364,9.45454545 16,9.45454545 Z M10.1818182,18.1818182 C9.78018182,18.1818182 9.45454545,18.5074545 9.45454545,18.9090909 L9.45454545,18.9090909 L9.45454545,21.8181818 C9.45454545,22.2198182 9.78018182,22.5454545 10.1818182,22.5454545 C10.5834545,22.5454545 10.9090909,22.2198182 10.9090909,21.8181818 L10.9090909,21.8181818 L10.9090909,18.9090909 C10.9090909,18.5074545 10.5834545,18.1818182 10.1818182,18.1818182 Z M21.8181818,13.8181818 C21.4165455,13.8181818 21.0909091,14.1438182 21.0909091,14.5454545 L21.0909091,14.5454545 L21.0909091,21.8181818 C21.0909091,22.2198182 21.4165455,22.5454545 21.8181818,22.5454545 C22.2198182,22.5454545 22.5454545,22.2198182 22.5454545,21.8181818 L22.5454545,21.8181818 L22.5454545,14.5454545 C22.5454545,14.1438182 22.2198182,13.8181818 21.8181818,13.8181818 Z" id="path-1"></path>
    </defs>
    <g id="Symbols" stroke="none" stroke-width="1" fill="none" fill-rule="evenodd">
        <g id="ATOMS/ICONS/bar" transform="translate(-8.000000, -8.000000)">
            <mask id="mask-2" fill="white">
                <use xlink:href="#path-1"></use>
            </mask>
            <use id="bar_icon" fill="#000000" fill-rule="nonzero" xlink:href="#path-1"></use>
        </g>
    </g>
</svg>